<svg width="266" height="55" viewBox="0 0 266 55" fill="none" xmlns="http://www.w3.org/2000/svg">
<g filter="url(#filter0_dd_2003_3781)">
<path d="M16.7122 32.5H9.82694V7.52585H23.3199C24.4877 7.52585 25.6034 7.68194 26.6671 7.99411C27.7424 8.30629 28.6905 8.78034 29.5114 9.41625C30.3323 10.0406 30.9856 10.8326 31.4712 11.7923C31.9684 12.7404 32.217 13.8561 32.217 15.1395C32.217 15.9488 32.1013 16.7119 31.8701 17.4288C31.6389 18.1341 31.3151 18.7816 30.8989 19.3712C30.4942 19.9609 30.0144 20.4928 29.4594 20.9668C28.9044 21.4408 28.2974 21.8397 27.6384 22.1635C26.9793 22.4872 26.2798 22.7358 25.5398 22.9092C24.8114 23.0827 24.0715 23.1694 23.3199 23.1694H16.7122V32.5ZM25.245 15.1395C25.245 13.5324 24.8346 12.2721 24.0136 11.3587C23.2043 10.4337 21.9787 9.97123 20.3369 9.97123H16.7122V20.8107H20.3369C21.2156 20.8107 21.9614 20.672 22.5742 20.3945C23.1985 20.1054 23.7072 19.7065 24.1004 19.1978C24.4935 18.6891 24.7825 18.0936 24.9675 17.4114C25.1525 16.7177 25.245 15.9604 25.245 15.1395ZM52.2483 14.2377L48.9531 19.7007C48.8144 19.2383 48.6352 18.718 48.4155 18.1399C48.1958 17.5618 47.9241 17.0241 47.6003 16.5269C47.2766 16.0182 46.8893 15.5962 46.4383 15.2609C45.9874 14.914 45.4671 14.7406 44.8775 14.7406C44.334 14.7406 43.86 14.8793 43.4553 15.1568C43.0622 15.4343 42.7269 15.7985 42.4494 16.2495C42.1719 16.6888 41.9407 17.1918 41.7557 17.7583C41.5823 18.3133 41.4435 18.8798 41.3395 19.4579C41.247 20.0245 41.1834 20.5737 41.1487 21.1055C41.114 21.6258 41.0967 22.0768 41.0967 22.4583V32.5H35.2173V12.4686H37.4719L39.8479 17.134C40.1717 16.3824 40.5417 15.6945 40.9579 15.0701C41.3741 14.4342 41.854 13.8908 42.3974 13.4399C42.9408 12.9774 43.5536 12.619 44.2358 12.3646C44.9295 12.1102 45.7099 11.983 46.5771 11.983C47.028 11.983 47.531 12.0235 48.086 12.1044C48.6409 12.1738 49.1844 12.301 49.7162 12.486C50.2481 12.6594 50.7395 12.8907 51.1904 13.1797C51.6413 13.4688 51.9939 13.8214 52.2483 14.2377ZM74.4649 32.5H68.6029V30.1066C67.9092 31.0547 67.0709 31.76 66.0882 32.2225C65.1169 32.6734 64.0474 32.8989 62.8797 32.8989C61.3535 32.8989 59.9891 32.6272 58.7867 32.0838C57.5842 31.5403 56.5668 30.8004 55.7343 29.8638C54.9018 28.9157 54.2659 27.8058 53.8265 26.534C53.3872 25.2621 53.1675 23.8978 53.1675 22.441C53.1675 20.9841 53.3872 19.6198 53.8265 18.348C54.2659 17.0761 54.9018 15.972 55.7343 15.0354C56.5668 14.0873 57.5842 13.3416 58.7867 12.7982C59.9891 12.2547 61.3535 11.983 62.8797 11.983C63.6543 11.983 64.3885 12.0987 65.0823 12.3299C65.7875 12.5611 66.4292 12.8907 67.0073 13.3185C67.597 13.7347 68.1115 14.2434 68.5509 14.8447C69.0018 15.4343 69.3544 16.0934 69.6088 16.8218L72.2103 12.4686H74.4649V32.5ZM68.5682 22.441C68.5682 21.9207 68.5393 21.3715 68.4815 20.7934C68.4353 20.2153 68.3485 19.6429 68.2214 19.0764C68.0942 18.5098 67.915 17.9722 67.6837 17.4635C67.464 16.9432 67.175 16.4865 66.8166 16.0934C66.4697 15.6887 66.0477 15.3707 65.5505 15.1395C65.0533 14.9083 64.4752 14.7926 63.8162 14.7926C63.1572 14.7926 62.5848 14.914 62.0992 15.1568C61.6136 15.3881 61.1974 15.706 60.8505 16.1107C60.5037 16.5038 60.2146 16.9605 59.9834 17.4808C59.7637 18.0011 59.5902 18.5445 59.4631 19.1111C59.3359 19.6776 59.2434 20.2499 59.1856 20.8281C59.1393 21.3946 59.1162 21.9322 59.1162 22.441C59.1162 22.9497 59.1393 23.4931 59.1856 24.0712C59.2434 24.6493 59.3359 25.2217 59.4631 25.7882C59.5902 26.3547 59.7637 26.8982 59.9834 27.4185C60.2146 27.9387 60.5037 28.4012 60.8505 28.8059C61.1974 29.199 61.6136 29.517 62.0992 29.7598C62.5848 29.991 63.1572 30.1066 63.8162 30.1066C64.4174 30.1066 64.9493 29.9852 65.4118 29.7424C65.8858 29.4881 66.2963 29.1528 66.6431 28.7365C67.0016 28.3203 67.3022 27.8463 67.545 27.3144C67.7878 26.7825 67.9843 26.2333 68.1346 25.6668C68.285 25.1003 68.3948 24.5395 68.4642 23.9845C68.5335 23.418 68.5682 22.9035 68.5682 22.441ZM100.67 22.441C100.67 23.8978 100.451 25.2621 100.011 26.534C99.572 27.8058 98.9361 28.9157 98.1036 29.8638C97.2712 30.8004 96.2537 31.5403 95.0512 32.0838C93.8488 32.6272 92.4844 32.8989 90.9582 32.8989C89.7905 32.8989 88.7152 32.6734 87.7324 32.2225C86.7612 31.76 85.9287 31.0547 85.235 30.1066V41.7439H79.373V12.4686H81.6276L84.2291 16.8218C84.4835 16.0934 84.8303 15.4343 85.2697 14.8447C85.7206 14.2434 86.2351 13.7347 86.8132 13.3185C87.4029 12.8907 88.0446 12.5611 88.7383 12.3299C89.4436 12.0987 90.1836 11.983 90.9582 11.983C92.4844 11.983 93.8488 12.2547 95.0512 12.7982C96.2537 13.3416 97.2712 14.0873 98.1036 15.0354C98.9361 15.972 99.572 17.0761 100.011 18.348C100.451 19.6198 100.67 20.9841 100.67 22.441ZM94.7217 22.441C94.7217 21.9322 94.6928 21.3946 94.635 20.8281C94.5887 20.2499 94.502 19.6776 94.3748 19.1111C94.2477 18.5445 94.0685 18.0011 93.8372 17.4808C93.6175 16.9605 93.3343 16.5038 92.9874 16.1107C92.6405 15.706 92.2185 15.3881 91.7213 15.1568C91.2357 14.914 90.6692 14.7926 90.0217 14.7926C89.3511 14.7926 88.7672 14.9083 88.2701 15.1395C87.7844 15.3707 87.3624 15.6887 87.004 16.0934C86.6571 16.4865 86.3681 16.9432 86.1368 17.4635C85.9172 17.9722 85.7437 18.5098 85.6166 19.0764C85.4894 19.6429 85.3969 20.2153 85.3391 20.7934C85.2928 21.3715 85.2697 21.9207 85.2697 22.441C85.2697 22.9035 85.3044 23.418 85.3737 23.9845C85.4431 24.5395 85.553 25.1003 85.7033 25.6668C85.8536 26.2333 86.0501 26.7825 86.2929 27.3144C86.5357 27.8463 86.8306 28.3203 87.1774 28.7365C87.5359 29.1528 87.9463 29.4881 88.4088 29.7424C88.8828 29.9852 89.4205 30.1066 90.0217 30.1066C90.6808 30.1066 91.2531 29.991 91.7387 29.7598C92.2243 29.517 92.6405 29.199 92.9874 28.8059C93.3343 28.4012 93.6175 27.9387 93.8372 27.4185C94.0685 26.8982 94.2477 26.3547 94.3748 25.7882C94.502 25.2217 94.5887 24.6493 94.635 24.0712C94.6928 23.4931 94.7217 22.9497 94.7217 22.441ZM124.621 32.5H118.759V30.1066C118.066 31.0547 117.227 31.76 116.245 32.2225C115.273 32.6734 114.204 32.8989 113.036 32.8989C111.51 32.8989 110.146 32.6272 108.943 32.0838C107.741 31.5403 106.723 30.8004 105.891 29.8638C105.058 28.9157 104.422 27.8058 103.983 26.534C103.544 25.2621 103.324 23.8978 103.324 22.441C103.324 20.9841 103.544 19.6198 103.983 18.348C104.422 17.0761 105.058 15.972 105.891 15.0354C106.723 14.0873 107.741 13.3416 108.943 12.7982C110.146 12.2547 111.51 11.983 113.036 11.983C113.811 11.983 114.545 12.0987 115.239 12.3299C115.944 12.5611 116.586 12.8907 117.164 13.3185C117.753 13.7347 118.268 14.2434 118.707 14.8447C119.158 15.4343 119.511 16.0934 119.765 16.8218L122.367 12.4686H124.621V32.5ZM118.725 22.441C118.725 21.9207 118.696 21.3715 118.638 20.7934C118.592 20.2153 118.505 19.6429 118.378 19.0764C118.251 18.5098 118.071 17.9722 117.84 17.4635C117.62 16.9432 117.331 16.4865 116.973 16.0934C116.626 15.6887 116.204 15.3707 115.707 15.1395C115.21 14.9083 114.632 14.7926 113.973 14.7926C113.314 14.7926 112.741 14.914 112.256 15.1568C111.77 15.3881 111.354 15.706 111.007 16.1107C110.66 16.5038 110.371 16.9605 110.14 17.4808C109.92 18.0011 109.747 18.5445 109.619 19.1111C109.492 19.6776 109.4 20.2499 109.342 20.8281C109.296 21.3946 109.273 21.9322 109.273 22.441C109.273 22.9497 109.296 23.4931 109.342 24.0712C109.4 24.6493 109.492 25.2217 109.619 25.7882C109.747 26.3547 109.92 26.8982 110.14 27.4185C110.371 27.9387 110.66 28.4012 111.007 28.8059C111.354 29.199 111.77 29.517 112.256 29.7598C112.741 29.991 113.314 30.1066 113.973 30.1066C114.574 30.1066 115.106 29.9852 115.568 29.7424C116.042 29.4881 116.453 29.1528 116.8 28.7365C117.158 28.3203 117.459 27.8463 117.701 27.3144C117.944 26.7825 118.141 26.2333 118.291 25.6668C118.441 25.1003 118.551 24.5395 118.621 23.9845C118.69 23.418 118.725 22.9035 118.725 22.441ZM150.012 21.0188C150.012 22.3716 149.844 23.7822 149.509 25.2506C149.185 26.7189 148.728 28.1584 148.139 29.569C147.549 30.9796 146.844 32.3034 146.023 33.5406C145.202 34.7893 144.3 35.8646 143.317 36.7664L141.115 35.5697C141.427 34.9916 141.722 34.3442 141.999 33.6273C142.277 32.9105 142.525 32.1531 142.745 31.3554C142.976 30.546 143.178 29.7135 143.352 28.8579C143.537 28.0023 143.687 27.1583 143.803 26.3258C143.93 25.4818 144.023 24.6667 144.08 23.8804C144.15 23.0827 144.184 22.3427 144.184 21.6605C144.184 21.2096 144.167 20.7298 144.132 20.221C144.098 19.7007 144.023 19.1862 143.907 18.6775C143.803 18.1572 143.658 17.66 143.473 17.186C143.288 16.7119 143.04 16.2957 142.728 15.9373C142.427 15.5789 142.057 15.2898 141.618 15.0701C141.19 14.8504 140.681 14.7406 140.091 14.7406C139.513 14.7406 138.999 14.8736 138.548 15.1395C138.097 15.3939 137.698 15.7349 137.351 16.1627C137.004 16.579 136.704 17.0588 136.449 17.6022C136.207 18.1456 136.004 18.7064 135.842 19.2845C135.692 19.8511 135.582 20.4118 135.513 20.9668C135.443 21.5218 135.409 22.0189 135.409 22.4583V32.5H129.529V12.4686H131.784L134.472 17.134C134.796 16.3593 135.201 15.654 135.686 15.0181C136.172 14.3822 136.721 13.8388 137.334 13.3878C137.947 12.9369 138.623 12.5901 139.363 12.3472C140.115 12.1044 140.924 11.983 141.791 11.983C143.178 11.983 144.387 12.2085 145.416 12.6594C146.445 13.1103 147.3 13.7405 147.983 14.5498C148.665 15.3476 149.173 16.3015 149.509 17.4114C149.844 18.5098 150.012 19.7123 150.012 21.0188ZM172.367 17.4288L169.835 18.4347C169.43 17.1629 168.754 16.1859 167.806 15.5037C166.858 14.8215 165.719 14.4805 164.389 14.4805C163.672 14.4805 163.031 14.5961 162.464 14.8273C161.909 15.047 161.418 15.3534 160.99 15.7465C160.574 16.1396 160.215 16.5963 159.915 17.1166C159.626 17.6369 159.389 18.1919 159.204 18.7816C159.019 19.3712 158.886 19.984 158.805 20.6199C158.724 21.2443 158.683 21.8513 158.683 22.441C158.683 23.0769 158.718 23.7186 158.787 24.3661C158.857 25.0135 158.972 25.6379 159.134 26.2391C159.308 26.8288 159.533 27.3838 159.811 27.9041C160.088 28.4128 160.435 28.8579 160.851 29.2395C161.279 29.621 161.782 29.9216 162.36 30.1413C162.95 30.361 163.626 30.4709 164.389 30.4709C165.002 30.4709 165.586 30.3784 166.141 30.1934C166.696 30.0084 167.205 29.7482 167.667 29.4129C168.13 29.0776 168.54 28.6787 168.898 28.2162C169.257 27.7538 169.54 27.2392 169.748 26.6727L172.298 27.6092C171.916 28.5226 171.407 29.3146 170.771 29.9852C170.147 30.6443 169.436 31.1935 168.638 31.6328C167.84 32.0606 166.985 32.3786 166.071 32.5867C165.158 32.7948 164.233 32.8989 163.297 32.8989C161.782 32.8989 160.377 32.6445 159.082 32.1358C157.787 31.6155 156.666 30.8929 155.718 29.9679C154.781 29.0314 154.047 27.9272 153.515 26.6554C152.983 25.372 152.717 23.9672 152.717 22.441C152.717 20.9032 152.977 19.4926 153.498 18.2092C154.03 16.9258 154.764 15.8217 155.7 14.8967C156.637 13.9717 157.753 13.2549 159.048 12.7461C160.342 12.2374 161.759 11.983 163.297 11.983C164.268 11.983 165.216 12.0929 166.141 12.3126C167.066 12.5207 167.921 12.8502 168.708 13.3011C169.505 13.7405 170.216 14.3012 170.841 14.9834C171.477 15.6656 171.985 16.4807 172.367 17.4288ZM196.318 21.0188C196.318 22.3716 196.15 23.7822 195.815 25.2506C195.491 26.7189 195.035 28.1584 194.445 29.569C193.855 30.9796 193.15 32.3034 192.329 33.5406C191.508 34.7893 190.606 35.8646 189.623 36.7664L187.421 35.5697C187.733 34.9916 188.028 34.3442 188.305 33.6273C188.583 32.9105 188.831 32.1531 189.051 31.3554C189.282 30.546 189.485 29.7135 189.658 28.8579C189.843 28.0023 189.993 27.1583 190.109 26.3258C190.236 25.4818 190.329 24.6667 190.387 23.8804C190.456 23.0827 190.491 22.3427 190.491 21.6605C190.491 21.2096 190.473 20.7298 190.439 20.221C190.404 19.7007 190.329 19.1862 190.213 18.6775C190.109 18.1572 189.965 17.66 189.78 17.186C189.595 16.7119 189.346 16.2957 189.034 15.9373C188.733 15.5789 188.363 15.2898 187.924 15.0701C187.496 14.8504 186.987 14.7406 186.398 14.7406C185.82 14.7406 185.305 14.8736 184.854 15.1395C184.403 15.3939 184.004 15.7349 183.657 16.1627C183.311 16.579 183.01 17.0588 182.756 17.6022C182.513 18.1456 182.31 18.7064 182.149 19.2845C181.998 19.8511 181.888 20.4118 181.819 20.9668C181.75 21.5218 181.715 22.0189 181.715 22.4583V32.5H175.836V5.0978H181.698V15.417C182.449 14.3186 183.368 13.4746 184.455 12.8849C185.554 12.2837 186.768 11.983 188.097 11.983C189.485 11.983 190.693 12.2085 191.722 12.6594C192.751 13.1103 193.607 13.7405 194.289 14.5498C194.971 15.3476 195.48 16.3015 195.815 17.4114C196.15 18.5098 196.318 19.7123 196.318 21.0188ZM220.356 32.5H214.494V30.1066C213.8 31.0547 212.962 31.76 211.979 32.2225C211.008 32.6734 209.938 32.8989 208.77 32.8989C207.244 32.8989 205.88 32.6272 204.677 32.0838C203.475 31.5403 202.457 30.8004 201.625 29.8638C200.792 28.9157 200.157 27.8058 199.717 26.534C199.278 25.2621 199.058 23.8978 199.058 22.441C199.058 20.9841 199.278 19.6198 199.717 18.348C200.157 17.0761 200.792 15.972 201.625 15.0354C202.457 14.0873 203.475 13.3416 204.677 12.7982C205.88 12.2547 207.244 11.983 208.77 11.983C209.545 11.983 210.279 12.0987 210.973 12.3299C211.678 12.5611 212.32 12.8907 212.898 13.3185C213.488 13.7347 214.002 14.2434 214.442 14.8447C214.892 15.4343 215.245 16.0934 215.499 16.8218L218.101 12.4686H220.356V32.5ZM214.459 22.441C214.459 21.9207 214.43 21.3715 214.372 20.7934C214.326 20.2153 214.239 19.6429 214.112 19.0764C213.985 18.5098 213.806 17.9722 213.574 17.4635C213.355 16.9432 213.066 16.4865 212.707 16.0934C212.36 15.6887 211.938 15.3707 211.441 15.1395C210.944 14.9083 210.366 14.7926 209.707 14.7926C209.048 14.7926 208.475 14.914 207.99 15.1568C207.504 15.3881 207.088 15.706 206.741 16.1107C206.394 16.5038 206.105 16.9605 205.874 17.4808C205.654 18.0011 205.481 18.5445 205.354 19.1111C205.227 19.6776 205.134 20.2499 205.076 20.8281C205.03 21.3946 205.007 21.9322 205.007 22.441C205.007 22.9497 205.03 23.4931 205.076 24.0712C205.134 24.6493 205.227 25.2217 205.354 25.7882C205.481 26.3547 205.654 26.8982 205.874 27.4185C206.105 27.9387 206.394 28.4012 206.741 28.8059C207.088 29.199 207.504 29.517 207.99 29.7598C208.475 29.991 209.048 30.1066 209.707 30.1066C210.308 30.1066 210.84 29.9852 211.302 29.7424C211.776 29.4881 212.187 29.1528 212.534 28.7365C212.892 28.3203 213.193 27.8463 213.436 27.3144C213.678 26.7825 213.875 26.2333 214.025 25.6668C214.176 25.1003 214.285 24.5395 214.355 23.9845C214.424 23.418 214.459 22.9035 214.459 22.441ZM256.256 20.8107C256.256 22.1866 256.094 23.6203 255.77 25.1118C255.447 26.6033 254.99 28.0602 254.4 29.4823C253.822 30.8929 253.123 32.2283 252.302 33.4886C251.481 34.7488 250.567 35.8414 249.561 36.7664L247.359 35.5697C247.694 34.9685 248.001 34.2921 248.278 33.5406C248.556 32.7891 248.81 31.997 249.041 31.1646C249.272 30.3321 249.475 29.4765 249.648 28.5978C249.822 27.7191 249.966 26.8461 250.082 25.979C250.209 25.1003 250.301 24.2504 250.359 23.4295C250.417 22.6086 250.446 21.8397 250.446 21.1229C250.446 20.7182 250.434 20.2789 250.411 19.8048C250.388 19.3308 250.336 18.8567 250.255 18.3827C250.186 17.9086 250.076 17.4577 249.926 17.0299C249.775 16.5905 249.567 16.2032 249.301 15.8679C249.047 15.521 248.723 15.2493 248.33 15.0528C247.949 14.8447 247.486 14.7406 246.943 14.7406C246.411 14.7406 245.954 14.8851 245.573 15.1742C245.203 15.4517 244.885 15.8159 244.619 16.2668C244.353 16.7177 244.139 17.2265 243.977 17.793C243.827 18.3595 243.711 18.9319 243.63 19.51C243.549 20.0765 243.491 20.6199 243.457 21.1402C243.434 21.6605 243.422 22.0999 243.422 22.4583V32.5H237.577V23.1694C237.577 22.7647 237.583 22.2791 237.595 21.7126C237.606 21.1344 237.589 20.5332 237.543 19.9089C237.508 19.2845 237.433 18.6659 237.317 18.0531C237.213 17.4288 237.04 16.8738 236.797 16.3882C236.566 15.9026 236.248 15.5095 235.843 15.2089C235.438 14.8967 234.93 14.7406 234.317 14.7406C233.797 14.7406 233.357 14.8851 232.999 15.1742C232.652 15.4632 232.357 15.839 232.114 16.3015C231.883 16.7524 231.698 17.2669 231.559 17.845C231.432 18.4116 231.334 18.9839 231.264 19.562C231.207 20.1285 231.172 20.672 231.16 21.1923C231.149 21.701 231.143 22.123 231.143 22.4583V32.5H225.264V12.4686H227.518L229.669 17.134C230.154 15.5153 230.918 14.255 231.958 13.3531C233.01 12.4397 234.404 11.983 236.138 11.983C237.699 11.983 238.994 12.3068 240.023 12.9543C241.052 13.6017 241.861 14.6539 242.451 16.1107C242.786 15.4748 243.156 14.9025 243.561 14.3937C243.977 13.885 244.434 13.4514 244.931 13.093C245.44 12.7346 246 12.4629 246.613 12.2779C247.226 12.0813 247.902 11.983 248.642 11.983C250.007 11.983 251.169 12.2085 252.128 12.6594C253.099 13.0988 253.891 13.7116 254.504 14.4978C255.117 15.284 255.562 16.2206 255.84 17.3074C256.117 18.3827 256.256 19.5504 256.256 20.8107Z" fill="white"/>
</g>
<defs>
<filter id="filter0_dd_2003_3781" x="0.693743" y="0.0236645" width="264.696" height="54.9129" filterUnits="userSpaceOnUse" color-interpolation-filters="sRGB">
<feFlood flood-opacity="0" result="BackgroundImageFix"/>
<feColorMatrix in="SourceAlpha" type="matrix" values="0 0 0 0 0 0 0 0 0 0 0 0 0 0 0 0 0 0 127 0" result="hardAlpha"/>
<feOffset dy="2.02965"/>
<feGaussianBlur stdDeviation="1.01482"/>
<feColorMatrix type="matrix" values="0 0 0 0 0 0 0 0 0 0 0 0 0 0 0 0 0 0 0.3 0"/>
<feBlend mode="normal" in2="BackgroundImageFix" result="effect1_dropShadow_2003_3781"/>
<feColorMatrix in="SourceAlpha" type="matrix" values="0 0 0 0 0 0 0 0 0 0 0 0 0 0 0 0 0 0 127 0" result="hardAlpha"/>
<feMorphology radius="3.04447" operator="dilate" in="SourceAlpha" result="effect2_dropShadow_2003_3781"/>
<feOffset dy="4.05929"/>
<feGaussianBlur stdDeviation="3.04447"/>
<feColorMatrix type="matrix" values="0 0 0 0 0 0 0 0 0 0 0 0 0 0 0 0 0 0 0.15 0"/>
<feBlend mode="normal" in2="effect1_dropShadow_2003_3781" result="effect2_dropShadow_2003_3781"/>
<feBlend mode="normal" in="SourceGraphic" in2="effect2_dropShadow_2003_3781" result="shape"/>
</filter>
</defs>
</svg>
